<?xml version="1.0" encoding="UTF-8" standalone="no"?>
<!DOCTYPE svg PUBLIC "-//W3C//DTD SVG 1.1//EN"
 "http://www.w3.org/Graphics/SVG/1.1/DTD/svg11.dtd">
<!-- Generated by graphviz version 2.47.3 (20210619.1520)
 -->
<!-- Title: G Pages: 1 -->
<svg width="1755pt" height="1259pt"
 viewBox="0.00 0.00 1755.20 1259.41" xmlns="http://www.w3.org/2000/svg" xmlns:xlink="http://www.w3.org/1999/xlink">
<g id="graph0" class="graph" transform="scale(1 1) rotate(0) translate(21.6 1237.81)">
<title>G</title>
<polygon fill="#111111" stroke="transparent" points="-21.6,21.6 -21.6,-1237.81 1733.6,-1237.81 1733.6,21.6 -21.6,21.6"/>
<!-- components/link.js -->
<g id="node1" class="node">
<title>components/link.js</title>
<path fill="none" stroke="#ff6c60" d="M120.33,-125.71C120.33,-125.71 7.67,-125.71 7.67,-125.71 3.83,-125.71 0,-121.87 0,-118.04 0,-118.04 0,-110.37 0,-110.37 0,-106.54 3.83,-102.71 7.67,-102.71 7.67,-102.71 120.33,-102.71 120.33,-102.71 124.17,-102.71 128,-106.54 128,-110.37 128,-110.37 128,-118.04 128,-118.04 128,-121.87 124.17,-125.71 120.33,-125.71"/>
<text text-anchor="middle" x="64" y="-110.51" font-family="Arial" font-size="14.00" fill="#ff6c60">components/link.js</text>
</g>
<!-- util/location.js -->
<g id="node2" class="node">
<title>util/location.js</title>
<path fill="none" stroke="#ff6c60" d="M254.33,-877.71C254.33,-877.71 171.67,-877.71 171.67,-877.71 167.83,-877.71 164,-873.87 164,-870.04 164,-870.04 164,-862.37 164,-862.37 164,-858.54 167.83,-854.71 171.67,-854.71 171.67,-854.71 254.33,-854.71 254.33,-854.71 258.17,-854.71 262,-858.54 262,-862.37 262,-862.37 262,-870.04 262,-870.04 262,-873.87 258.17,-877.71 254.33,-877.71"/>
<text text-anchor="middle" x="213" y="-862.51" font-family="Arial" font-size="14.00" fill="#ff6c60">util/location.js</text>
</g>
<!-- components/link.js&#45;&gt;util/location.js -->
<g id="edge1" class="edge">
<title>components/link.js&#45;&gt;util/location.js</title>
<path fill="none" stroke="#757575" d="M67.25,-125.72C83.73,-210.04 185.81,-732.21 207.82,-844.82"/>
<polygon fill="#757575" stroke="#757575" points="204.39,-845.53 209.75,-854.67 211.26,-844.19 204.39,-845.53"/>
</g>
<!-- util/misc.js -->
<g id="node3" class="node">
<title>util/misc.js</title>
<path fill="none" stroke="#cfffac" d="M1467.33,-415.71C1467.33,-415.71 1402.67,-415.71 1402.67,-415.71 1398.83,-415.71 1395,-411.87 1395,-408.04 1395,-408.04 1395,-400.37 1395,-400.37 1395,-396.54 1398.83,-392.71 1402.67,-392.71 1402.67,-392.71 1467.33,-392.71 1467.33,-392.71 1471.17,-392.71 1475,-396.54 1475,-400.37 1475,-400.37 1475,-408.04 1475,-408.04 1475,-411.87 1471.17,-415.71 1467.33,-415.71"/>
<text text-anchor="middle" x="1435" y="-400.51" font-family="Arial" font-size="14.00" fill="#cfffac">util/misc.js</text>
</g>
<!-- components/link.js&#45;&gt;util/misc.js -->
<g id="edge2" class="edge">
<title>components/link.js&#45;&gt;util/misc.js</title>
<path fill="none" stroke="#757575" d="M114.62,-102.7C167.27,-91.52 253.03,-76.21 328,-76.21 328,-76.21 328,-76.21 782,-76.21 1042.79,-76.21 1166.4,-11.28 1358,-188.21 1414.96,-240.8 1429.24,-338.62 1432.81,-382.23"/>
<polygon fill="#757575" stroke="#757575" points="1429.33,-382.59 1433.52,-392.32 1436.31,-382.1 1429.33,-382.59"/>
</g>
<!-- util/route.js -->
<g id="node4" class="node">
<title>util/route.js</title>
<path fill="none" stroke="#ff6c60" d="M1468.33,-830.71C1468.33,-830.71 1401.67,-830.71 1401.67,-830.71 1397.83,-830.71 1394,-826.87 1394,-823.04 1394,-823.04 1394,-815.37 1394,-815.37 1394,-811.54 1397.83,-807.71 1401.67,-807.71 1401.67,-807.71 1468.33,-807.71 1468.33,-807.71 1472.17,-807.71 1476,-811.54 1476,-815.37 1476,-815.37 1476,-823.04 1476,-823.04 1476,-826.87 1472.17,-830.71 1468.33,-830.71"/>
<text text-anchor="middle" x="1435" y="-815.51" font-family="Arial" font-size="14.00" fill="#ff6c60">util/route.js</text>
</g>
<!-- components/link.js&#45;&gt;util/route.js -->
<g id="edge3" class="edge">
<title>components/link.js&#45;&gt;util/route.js</title>
<path fill="none" stroke="#757575" d="M65.27,-125.79C68.24,-241.1 99.42,-1178.21 328,-1178.21 328,-1178.21 328,-1178.21 458,-1178.21 880.35,-1178.21 989.39,-1079.37 1358,-873.21 1377.01,-862.57 1397.04,-848.19 1411.76,-836.95"/>
<polygon fill="#757575" stroke="#757575" points="1414.01,-839.63 1419.77,-830.74 1409.72,-834.1 1414.01,-839.63"/>
</g>
<!-- util/warn.js -->
<g id="node5" class="node">
<title>util/warn.js</title>
<path fill="none" stroke="#cfffac" d="M1704.33,-533.71C1704.33,-533.71 1639.67,-533.71 1639.67,-533.71 1635.83,-533.71 1632,-529.87 1632,-526.04 1632,-526.04 1632,-518.37 1632,-518.37 1632,-514.54 1635.83,-510.71 1639.67,-510.71 1639.67,-510.71 1704.33,-510.71 1704.33,-510.71 1708.17,-510.71 1712,-514.54 1712,-518.37 1712,-518.37 1712,-526.04 1712,-526.04 1712,-529.87 1708.17,-533.71 1704.33,-533.71"/>
<text text-anchor="middle" x="1672" y="-518.51" font-family="Arial" font-size="14.00" fill="#cfffac">util/warn.js</text>
</g>
<!-- components/link.js&#45;&gt;util/warn.js -->
<g id="edge4" class="edge">
<title>components/link.js&#45;&gt;util/warn.js</title>
<path fill="none" stroke="#757575" d="M79.73,-102.65C118.18,-73.67 225.73,-0.21 328,-0.21 328,-0.21 328,-0.21 1436,-0.21 1511.05,-0.21 1547.53,3.09 1596,-54.21 1654.3,-123.13 1667.76,-417.7 1670.41,-500.49"/>
<polygon fill="#757575" stroke="#757575" points="1666.92,-500.63 1670.72,-510.52 1673.91,-500.42 1666.92,-500.63"/>
</g>
<!-- util/location.js&#45;&gt;util/misc.js -->
<g id="edge57" class="edge">
<title>util/location.js&#45;&gt;util/misc.js</title>
<path fill="none" stroke="#757575" d="M215.52,-854.54C226.2,-774.13 292.82,-302.27 396,-210.21 527.46,-92.91 1024.12,-109.53 1188,-174.21 1298.13,-217.67 1387.95,-336.29 1420.69,-383.96"/>
<polygon fill="#757575" stroke="#757575" points="1417.96,-386.18 1426.46,-392.51 1423.76,-382.27 1417.96,-386.18"/>
</g>
<!-- util/location.js&#45;&gt;util/warn.js -->
<g id="edge61" class="edge">
<title>util/location.js&#45;&gt;util/warn.js</title>
<path fill="none" stroke="#757575" d="M228.07,-877.93C272.48,-914.18 414.98,-1024.71 554,-1070.21 597.97,-1084.59 952.6,-1100.21 959.5,-1100.21 959.5,-1100.21 959.5,-1100.21 1436,-1100.21 1507.66,-1100.21 1545.09,-1130.65 1596,-1080.21 1673.32,-1003.6 1672.87,-637.97 1671.45,-544.17"/>
<polygon fill="#757575" stroke="#757575" points="1674.94,-543.83 1671.27,-533.9 1667.94,-543.95 1674.94,-543.83"/>
</g>
<!-- index.js -->
<g id="node9" class="node">
<title>index.js</title>
<path fill="none" stroke="#ff6c60" d="M352.33,-622.71C352.33,-622.71 305.67,-622.71 305.67,-622.71 301.83,-622.71 298,-618.87 298,-615.04 298,-615.04 298,-607.37 298,-607.37 298,-603.54 301.83,-599.71 305.67,-599.71 305.67,-599.71 352.33,-599.71 352.33,-599.71 356.17,-599.71 360,-603.54 360,-607.37 360,-607.37 360,-615.04 360,-615.04 360,-618.87 356.17,-622.71 352.33,-622.71"/>
<text text-anchor="middle" x="329" y="-607.51" font-family="Arial" font-size="14.00" fill="#ff6c60">index.js</text>
</g>
<!-- util/location.js&#45;&gt;index.js -->
<g id="edge56" class="edge">
<title>util/location.js&#45;&gt;index.js</title>
<path fill="none" stroke="#757575" d="M218.06,-854.42C233.94,-814.08 292.19,-683.26 316.85,-631.93"/>
<polygon fill="#757575" stroke="#757575" points="320.08,-633.29 321.32,-622.77 313.79,-630.22 320.08,-633.29"/>
</g>
<!-- util/params.js -->
<g id="node10" class="node">
<title>util/params.js</title>
<path fill="none" stroke="#c6c5fe" d="M661.83,-1149.71C661.83,-1149.71 580.17,-1149.71 580.17,-1149.71 576.33,-1149.71 572.5,-1145.87 572.5,-1142.04 572.5,-1142.04 572.5,-1134.37 572.5,-1134.37 572.5,-1130.54 576.33,-1126.71 580.17,-1126.71 580.17,-1126.71 661.83,-1126.71 661.83,-1126.71 665.67,-1126.71 669.5,-1130.54 669.5,-1134.37 669.5,-1134.37 669.5,-1142.04 669.5,-1142.04 669.5,-1145.87 665.67,-1149.71 661.83,-1149.71"/>
<text text-anchor="middle" x="621" y="-1134.51" font-family="Arial" font-size="14.00" fill="#c6c5fe">util/params.js</text>
</g>
<!-- util/location.js&#45;&gt;util/params.js -->
<g id="edge58" class="edge">
<title>util/location.js&#45;&gt;util/params.js</title>
<path fill="none" stroke="#757575" d="M213.88,-877.96C214.16,-918.37 221.06,-1052.35 298,-1112.21 373.84,-1171.21 492.39,-1162.88 562.51,-1150.92"/>
<polygon fill="#757575" stroke="#757575" points="563.27,-1154.34 572.49,-1149.14 562.04,-1147.45 563.27,-1154.34"/>
</g>
<!-- util/path.js -->
<g id="node11" class="node">
<title>util/path.js</title>
<path fill="none" stroke="#cfffac" d="M811.83,-879.71C811.83,-879.71 750.17,-879.71 750.17,-879.71 746.33,-879.71 742.5,-875.87 742.5,-872.04 742.5,-872.04 742.5,-864.37 742.5,-864.37 742.5,-860.54 746.33,-856.71 750.17,-856.71 750.17,-856.71 811.83,-856.71 811.83,-856.71 815.67,-856.71 819.5,-860.54 819.5,-864.37 819.5,-864.37 819.5,-872.04 819.5,-872.04 819.5,-875.87 815.67,-879.71 811.83,-879.71"/>
<text text-anchor="middle" x="781" y="-864.51" font-family="Arial" font-size="14.00" fill="#cfffac">util/path.js</text>
</g>
<!-- util/location.js&#45;&gt;util/path.js -->
<g id="edge59" class="edge">
<title>util/location.js&#45;&gt;util/path.js</title>
<path fill="none" stroke="#757575" d="M262.26,-866.38C369.24,-866.75 625.27,-867.66 732,-868.04"/>
<polygon fill="#757575" stroke="#757575" points="732.15,-871.54 742.16,-868.07 732.17,-864.54 732.15,-871.54"/>
</g>
<!-- util/query.js -->
<g id="node12" class="node">
<title>util/query.js</title>
<path fill="none" stroke="#c6c5fe" d="M1588.33,-1071.71C1588.33,-1071.71 1519.67,-1071.71 1519.67,-1071.71 1515.83,-1071.71 1512,-1067.87 1512,-1064.04 1512,-1064.04 1512,-1056.37 1512,-1056.37 1512,-1052.54 1515.83,-1048.71 1519.67,-1048.71 1519.67,-1048.71 1588.33,-1048.71 1588.33,-1048.71 1592.17,-1048.71 1596,-1052.54 1596,-1056.37 1596,-1056.37 1596,-1064.04 1596,-1064.04 1596,-1067.87 1592.17,-1071.71 1588.33,-1071.71"/>
<text text-anchor="middle" x="1554" y="-1056.51" font-family="Arial" font-size="14.00" fill="#c6c5fe">util/query.js</text>
</g>
<!-- util/location.js&#45;&gt;util/query.js -->
<g id="edge60" class="edge">
<title>util/location.js&#45;&gt;util/query.js</title>
<path fill="none" stroke="#757575" d="M214.3,-877.75C215.96,-918.87 226.81,-1060.07 298,-1142.21 348.79,-1200.8 378.46,-1216.21 456,-1216.21 456,-1216.21 456,-1216.21 1292,-1216.21 1397.41,-1216.21 1497.18,-1121.29 1535.97,-1079.53"/>
<polygon fill="#757575" stroke="#757575" points="1538.75,-1081.68 1542.9,-1071.93 1533.58,-1076.96 1538.75,-1081.68"/>
</g>
<!-- util/route.js&#45;&gt;index.js -->
<g id="edge71" class="edge">
<title>util/route.js&#45;&gt;index.js</title>
<path fill="none" stroke="#757575" d="M1393.58,-825.18C1336.35,-828.21 1228.44,-828.21 1136.5,-828.21 959.5,-828.21 959.5,-828.21 959.5,-828.21 810.13,-828.21 481.46,-772.52 396,-713.21 367.1,-693.15 346.52,-656.12 336.63,-632.34"/>
<polygon fill="#757575" stroke="#757575" points="339.8,-630.84 332.96,-622.75 333.27,-633.34 339.8,-630.84"/>
</g>
<!-- util/route.js&#45;&gt;util/query.js -->
<g id="edge72" class="edge">
<title>util/route.js&#45;&gt;util/query.js</title>
<path fill="none" stroke="#757575" d="M1441.64,-830.83C1460.18,-869.01 1519.35,-990.88 1543.05,-1039.7"/>
<polygon fill="#757575" stroke="#757575" points="1539.9,-1041.23 1547.41,-1048.7 1546.19,-1038.17 1539.9,-1041.23"/>
</g>
<!-- components/view.js -->
<g id="node6" class="node">
<title>components/view.js</title>
<path fill="none" stroke="#c6c5fe" d="M1350.33,-493.71C1350.33,-493.71 1231.67,-493.71 1231.67,-493.71 1227.83,-493.71 1224,-489.87 1224,-486.04 1224,-486.04 1224,-478.37 1224,-478.37 1224,-474.54 1227.83,-470.71 1231.67,-470.71 1231.67,-470.71 1350.33,-470.71 1350.33,-470.71 1354.17,-470.71 1358,-474.54 1358,-478.37 1358,-478.37 1358,-486.04 1358,-486.04 1358,-489.87 1354.17,-493.71 1350.33,-493.71"/>
<text text-anchor="middle" x="1291" y="-478.51" font-family="Arial" font-size="14.00" fill="#c6c5fe">components/view.js</text>
</g>
<!-- components/view.js&#45;&gt;util/misc.js -->
<g id="edge5" class="edge">
<title>components/view.js&#45;&gt;util/misc.js</title>
<path fill="none" stroke="#757575" d="M1325.55,-470.66C1336.16,-466.58 1347.77,-461.63 1358,-456.21 1376.6,-446.34 1396.17,-432.87 1410.79,-422.11"/>
<polygon fill="#757575" stroke="#757575" points="1413.3,-424.61 1419.21,-415.82 1409.1,-419 1413.3,-424.61"/>
</g>
<!-- components/view.js&#45;&gt;util/route.js -->
<g id="edge6" class="edge">
<title>components/view.js&#45;&gt;util/route.js</title>
<path fill="none" stroke="#757575" d="M1308.23,-493.85C1323.28,-505.47 1345.2,-524.66 1358,-546.21 1408.13,-630.57 1426.28,-749.2 1431.85,-797.49"/>
<polygon fill="#757575" stroke="#757575" points="1428.37,-797.88 1432.93,-807.44 1435.33,-797.12 1428.37,-797.88"/>
</g>
<!-- components/view.js&#45;&gt;util/warn.js -->
<g id="edge7" class="edge">
<title>components/view.js&#45;&gt;util/warn.js</title>
<path fill="none" stroke="#757575" d="M1358.03,-485.96C1419.75,-489.91 1514.38,-497.13 1596,-508.21 1604.4,-509.35 1613.28,-510.79 1621.88,-512.32"/>
<polygon fill="#757575" stroke="#757575" points="1621.34,-515.77 1631.81,-514.13 1622.6,-508.89 1621.34,-515.77"/>
</g>
<!-- create&#45;matcher.js -->
<g id="node7" class="node">
<title>create&#45;matcher.js</title>
<path fill="none" stroke="#ff6c60" d="M509.83,-955.71C509.83,-955.71 404.17,-955.71 404.17,-955.71 400.33,-955.71 396.5,-951.87 396.5,-948.04 396.5,-948.04 396.5,-940.37 396.5,-940.37 396.5,-936.54 400.33,-932.71 404.17,-932.71 404.17,-932.71 509.83,-932.71 509.83,-932.71 513.67,-932.71 517.5,-936.54 517.5,-940.37 517.5,-940.37 517.5,-948.04 517.5,-948.04 517.5,-951.87 513.67,-955.71 509.83,-955.71"/>
<text text-anchor="middle" x="457" y="-940.51" font-family="Arial" font-size="14.00" fill="#ff6c60">create&#45;matcher.js</text>
</g>
<!-- create&#45;matcher.js&#45;&gt;util/location.js -->
<g id="edge10" class="edge">
<title>create&#45;matcher.js&#45;&gt;util/location.js</title>
<path fill="none" stroke="#757575" d="M420.15,-932.65C377.36,-918.86 305.79,-895.79 259.24,-880.79"/>
<polygon fill="#757575" stroke="#757575" points="260.3,-877.45 249.71,-877.72 258.15,-884.11 260.3,-877.45"/>
</g>
<!-- create&#45;matcher.js&#45;&gt;util/route.js -->
<g id="edge14" class="edge">
<title>create&#45;matcher.js&#45;&gt;util/route.js</title>
<path fill="none" stroke="#757575" d="M504.09,-955.81C519.81,-959.23 537.57,-962.51 554,-964.21 613.24,-970.31 628.69,-969.56 688,-964.21 989.45,-936.98 1063.79,-913.27 1358,-842.21 1368.05,-839.78 1378.73,-836.8 1388.82,-833.8"/>
<polygon fill="#757575" stroke="#757575" points="1390.11,-837.07 1398.66,-830.81 1388.07,-830.37 1390.11,-837.07"/>
</g>
<!-- create&#45;matcher.js&#45;&gt;util/warn.js -->
<g id="edge15" class="edge">
<title>create&#45;matcher.js&#45;&gt;util/warn.js</title>
<path fill="none" stroke="#757575" d="M481.39,-955.83C500.42,-964.64 528.25,-976.08 554,-981.21 729.26,-1016.12 1186.01,-1046.75 1358,-998.21 1477.43,-964.49 1523.69,-953.06 1596,-852.21 1666.46,-753.93 1672.1,-600.37 1671.61,-543.95"/>
<polygon fill="#757575" stroke="#757575" points="1675.1,-543.66 1671.44,-533.72 1668.1,-543.77 1675.1,-543.66"/>
</g>
<!-- create&#45;route&#45;map.js -->
<g id="node8" class="node">
<title>create&#45;route&#45;map.js</title>
<path fill="none" stroke="#c6c5fe" d="M680.33,-955.71C680.33,-955.71 561.67,-955.71 561.67,-955.71 557.83,-955.71 554,-951.87 554,-948.04 554,-948.04 554,-940.37 554,-940.37 554,-936.54 557.83,-932.71 561.67,-932.71 561.67,-932.71 680.33,-932.71 680.33,-932.71 684.17,-932.71 688,-936.54 688,-940.37 688,-940.37 688,-948.04 688,-948.04 688,-951.87 684.17,-955.71 680.33,-955.71"/>
<text text-anchor="middle" x="621" y="-940.51" font-family="Arial" font-size="14.00" fill="#c6c5fe">create&#45;route&#45;map.js</text>
</g>
<!-- create&#45;matcher.js&#45;&gt;create&#45;route&#45;map.js -->
<g id="edge8" class="edge">
<title>create&#45;matcher.js&#45;&gt;create&#45;route&#45;map.js</title>
<path fill="none" stroke="#757575" d="M517.86,-944.21C526.28,-944.21 535.03,-944.21 543.71,-944.21"/>
<polygon fill="#757575" stroke="#757575" points="543.84,-947.71 553.84,-944.21 543.84,-940.71 543.84,-947.71"/>
</g>
<!-- create&#45;matcher.js&#45;&gt;index.js -->
<g id="edge9" class="edge">
<title>create&#45;matcher.js&#45;&gt;index.js</title>
<path fill="none" stroke="#757575" d="M443.22,-932.47C429.91,-914.92 409.2,-881.99 396,-851.21 363.04,-774.33 341.22,-676.14 333.31,-632.88"/>
<polygon fill="#757575" stroke="#757575" points="336.73,-632.13 331.56,-622.88 329.84,-633.34 336.73,-632.13"/>
</g>
<!-- create&#45;matcher.js&#45;&gt;util/params.js -->
<g id="edge11" class="edge">
<title>create&#45;matcher.js&#45;&gt;util/params.js</title>
<path fill="none" stroke="#757575" d="M465.62,-955.82C481.14,-979.15 517.99,-1033.02 554,-1074.21 568.09,-1090.33 585.54,-1107.13 598.96,-1119.47"/>
<polygon fill="#757575" stroke="#757575" points="596.97,-1122.39 606.72,-1126.53 601.68,-1117.21 596.97,-1122.39"/>
</g>
<!-- create&#45;matcher.js&#45;&gt;util/path.js -->
<g id="edge12" class="edge">
<title>create&#45;matcher.js&#45;&gt;util/path.js</title>
<path fill="none" stroke="#757575" d="M506.9,-932.66C567.94,-918.26 671.65,-893.78 732.18,-879.49"/>
<polygon fill="#757575" stroke="#757575" points="733.3,-882.82 742.23,-877.12 731.7,-876.01 733.3,-882.82"/>
</g>
<!-- create&#45;matcher.js&#45;&gt;util/query.js -->
<g id="edge13" class="edge">
<title>create&#45;matcher.js&#45;&gt;util/query.js</title>
<path fill="none" stroke="#757575" d="M465.85,-955.88C480.41,-976.43 513.85,-1018.56 554,-1036.21 719.33,-1108.87 778.91,-1062.21 959.5,-1062.21 959.5,-1062.21 959.5,-1062.21 1292,-1062.21 1364.86,-1062.21 1449.15,-1061.42 1501.77,-1060.83"/>
<polygon fill="#757575" stroke="#757575" points="1501.9,-1064.33 1511.86,-1060.72 1501.83,-1057.33 1501.9,-1064.33"/>
</g>
<!-- create&#45;route&#45;map.js&#45;&gt;util/warn.js -->
<g id="edge17" class="edge">
<title>create&#45;route&#45;map.js&#45;&gt;util/warn.js</title>
<path fill="none" stroke="#757575" d="M688.06,-932.96C755.94,-922.4 864.78,-908.21 959.5,-908.21 959.5,-908.21 959.5,-908.21 1436,-908.21 1607.97,-908.21 1657.73,-625.23 1668.49,-543.85"/>
<polygon fill="#757575" stroke="#757575" points="1671.98,-544.12 1669.76,-533.76 1665.04,-543.24 1671.98,-544.12"/>
</g>
<!-- create&#45;route&#45;map.js&#45;&gt;util/path.js -->
<g id="edge16" class="edge">
<title>create&#45;route&#45;map.js&#45;&gt;util/path.js</title>
<path fill="none" stroke="#757575" d="M655.51,-932.59C666.12,-928.5 677.74,-923.57 688,-918.21 705.04,-909.3 707.23,-903.62 724,-894.21 730.16,-890.75 736.85,-887.36 743.4,-884.21"/>
<polygon fill="#757575" stroke="#757575" points="745.23,-887.22 752.81,-879.82 742.26,-880.88 745.23,-887.22"/>
</g>
<!-- index.js&#45;&gt;util/location.js -->
<g id="edge48" class="edge">
<title>index.js&#45;&gt;util/location.js</title>
<path fill="none" stroke="#757575" d="M323.96,-622.96C308.12,-663.2 250.01,-793.7 225.27,-845.23"/>
<polygon fill="#757575" stroke="#757575" points="222.02,-843.91 220.79,-854.43 228.31,-846.97 222.02,-843.91"/>
</g>
<!-- index.js&#45;&gt;util/route.js -->
<g id="edge51" class="edge">
<title>index.js&#45;&gt;util/route.js</title>
<path fill="none" stroke="#757575" d="M337.98,-622.78C348.32,-641.3 368.35,-676.02 396,-695.21 481.46,-754.52 810.13,-810.21 959.5,-810.21 959.5,-810.21 959.5,-810.21 1136.5,-810.21 1223.23,-810.21 1324.18,-810.21 1383.38,-812.75"/>
<polygon fill="#757575" stroke="#757575" points="1383.42,-816.25 1393.58,-813.23 1383.76,-809.26 1383.42,-816.25"/>
</g>
<!-- index.js&#45;&gt;util/warn.js -->
<g id="edge53" class="edge">
<title>index.js&#45;&gt;util/warn.js</title>
<path fill="none" stroke="#757575" d="M330.77,-599.58C334.79,-541.07 354.86,-278.91 396,-210.21 460.48,-102.52 494.48,-38.21 620,-38.21 620,-38.21 620,-38.21 1436,-38.21 1644.24,-38.21 1668.01,-405.26 1670.67,-500.07"/>
<polygon fill="#757575" stroke="#757575" points="1667.18,-500.32 1670.9,-510.24 1674.18,-500.17 1667.18,-500.32"/>
</g>
<!-- index.js&#45;&gt;create&#45;matcher.js -->
<g id="edge41" class="edge">
<title>index.js&#45;&gt;create&#45;matcher.js</title>
<path fill="none" stroke="#757575" d="M333.14,-622.79C340.9,-656.71 362.8,-755.77 396,-833.21 410.1,-866.1 432.8,-901.46 445.86,-923.54"/>
<polygon fill="#757575" stroke="#757575" points="442.95,-925.49 450.97,-932.41 449.01,-922 442.95,-925.49"/>
</g>
<!-- index.js&#45;&gt;util/path.js -->
<g id="edge49" class="edge">
<title>index.js&#45;&gt;util/path.js</title>
<path fill="none" stroke="#757575" d="M330.13,-623.01C331.18,-657.07 339.22,-756.18 396,-804.21 496.41,-889.15 558.32,-830.27 688,-852.21 702.41,-854.64 718.07,-857.35 732.32,-859.83"/>
<polygon fill="#757575" stroke="#757575" points="731.96,-863.32 742.41,-861.59 733.16,-856.42 731.96,-863.32"/>
</g>
<!-- history/abstract.js -->
<g id="node13" class="node">
<title>history/abstract.js</title>
<path fill="none" stroke="#ff6c60" d="M510.33,-341.71C510.33,-341.71 403.67,-341.71 403.67,-341.71 399.83,-341.71 396,-337.87 396,-334.04 396,-334.04 396,-326.37 396,-326.37 396,-322.54 399.83,-318.71 403.67,-318.71 403.67,-318.71 510.33,-318.71 510.33,-318.71 514.17,-318.71 518,-322.54 518,-326.37 518,-326.37 518,-334.04 518,-334.04 518,-337.87 514.17,-341.71 510.33,-341.71"/>
<text text-anchor="middle" x="457" y="-326.51" font-family="Arial" font-size="14.00" fill="#ff6c60">history/abstract.js</text>
</g>
<!-- index.js&#45;&gt;history/abstract.js -->
<g id="edge42" class="edge">
<title>index.js&#45;&gt;history/abstract.js</title>
<path fill="none" stroke="#757575" d="M329.69,-599.58C328.87,-560.13 330.08,-432.51 394.85,-349.77"/>
<polygon fill="#757575" stroke="#757575" points="397.67,-351.86 401.32,-341.91 392.27,-347.41 397.67,-351.86"/>
</g>
<!-- util/errors.js -->
<g id="node15" class="node">
<title>util/errors.js</title>
<path fill="none" stroke="#cfffac" d="M1170.83,-206.71C1170.83,-206.71 1100.17,-206.71 1100.17,-206.71 1096.33,-206.71 1092.5,-202.87 1092.5,-199.04 1092.5,-199.04 1092.5,-191.37 1092.5,-191.37 1092.5,-187.54 1096.33,-183.71 1100.17,-183.71 1100.17,-183.71 1170.83,-183.71 1170.83,-183.71 1174.67,-183.71 1178.5,-187.54 1178.5,-191.37 1178.5,-191.37 1178.5,-199.04 1178.5,-199.04 1178.5,-202.87 1174.67,-206.71 1170.83,-206.71"/>
<text text-anchor="middle" x="1135.5" y="-191.51" font-family="Arial" font-size="14.00" fill="#cfffac">util/errors.js</text>
</g>
<!-- index.js&#45;&gt;util/errors.js -->
<g id="edge47" class="edge">
<title>index.js&#45;&gt;util/errors.js</title>
<path fill="none" stroke="#757575" d="M331.12,-599.39C336.07,-549.28 357.51,-354.85 396,-309.21 537.2,-141.75 655.4,-203 874,-189.21 950.74,-184.37 970.16,-186.57 1047,-189.21 1058.42,-189.6 1070.66,-190.27 1082.26,-191.04"/>
<polygon fill="#757575" stroke="#757575" points="1082.03,-194.53 1092.25,-191.72 1082.51,-187.55 1082.03,-194.53"/>
</g>
<!-- install.js -->
<g id="node16" class="node">
<title>install.js</title>
<path fill="none" stroke="#ff6c60" d="M1160.33,-375.71C1160.33,-375.71 1110.67,-375.71 1110.67,-375.71 1106.83,-375.71 1103,-371.87 1103,-368.04 1103,-368.04 1103,-360.37 1103,-360.37 1103,-356.54 1106.83,-352.71 1110.67,-352.71 1110.67,-352.71 1160.33,-352.71 1160.33,-352.71 1164.17,-352.71 1168,-356.54 1168,-360.37 1168,-360.37 1168,-368.04 1168,-368.04 1168,-371.87 1164.17,-375.71 1160.33,-375.71"/>
<text text-anchor="middle" x="1135.5" y="-360.51" font-family="Arial" font-size="14.00" fill="#ff6c60">install.js</text>
</g>
<!-- index.js&#45;&gt;install.js -->
<g id="edge45" class="edge">
<title>index.js&#45;&gt;install.js</title>
<path fill="none" stroke="#757575" d="M333.54,-599.66C341.03,-577.37 360.76,-528.63 396,-506.21 641.98,-349.68 774.78,-529.63 1047,-425.21 1060.6,-419.99 1090.53,-398.15 1111.58,-382.08"/>
<polygon fill="#757575" stroke="#757575" points="1113.92,-384.7 1119.71,-375.83 1109.65,-379.15 1113.92,-384.7"/>
</g>
<!-- util/dom.js -->
<g id="node18" class="node">
<title>util/dom.js</title>
<path fill="none" stroke="#cfffac" d="M1322.33,-687.71C1322.33,-687.71 1259.67,-687.71 1259.67,-687.71 1255.83,-687.71 1252,-683.87 1252,-680.04 1252,-680.04 1252,-672.37 1252,-672.37 1252,-668.54 1255.83,-664.71 1259.67,-664.71 1259.67,-664.71 1322.33,-664.71 1322.33,-664.71 1326.17,-664.71 1330,-668.54 1330,-672.37 1330,-672.37 1330,-680.04 1330,-680.04 1330,-683.87 1326.17,-687.71 1322.33,-687.71"/>
<text text-anchor="middle" x="1291" y="-672.51" font-family="Arial" font-size="14.00" fill="#cfffac">util/dom.js</text>
</g>
<!-- index.js&#45;&gt;util/dom.js -->
<g id="edge46" class="edge">
<title>index.js&#45;&gt;util/dom.js</title>
<path fill="none" stroke="#757575" d="M343.3,-623.1C356.06,-634 376.24,-649.95 396,-660.21 489.05,-708.52 515.15,-734.21 620,-734.21 620,-734.21 620,-734.21 961.5,-734.21 1062.65,-734.21 1178.69,-707.21 1242.21,-690.05"/>
<polygon fill="#757575" stroke="#757575" points="1243.23,-693.4 1251.95,-687.39 1241.38,-686.65 1243.23,-693.4"/>
</g>
<!-- history/hash.js -->
<g id="node20" class="node">
<title>history/hash.js</title>
<path fill="none" stroke="#ff6c60" d="M500.83,-573.71C500.83,-573.71 413.17,-573.71 413.17,-573.71 409.33,-573.71 405.5,-569.87 405.5,-566.04 405.5,-566.04 405.5,-558.37 405.5,-558.37 405.5,-554.54 409.33,-550.71 413.17,-550.71 413.17,-550.71 500.83,-550.71 500.83,-550.71 504.67,-550.71 508.5,-554.54 508.5,-558.37 508.5,-558.37 508.5,-566.04 508.5,-566.04 508.5,-569.87 504.67,-573.71 500.83,-573.71"/>
<text text-anchor="middle" x="457" y="-558.51" font-family="Arial" font-size="14.00" fill="#ff6c60">history/hash.js</text>
</g>
<!-- index.js&#45;&gt;history/hash.js -->
<g id="edge43" class="edge">
<title>index.js&#45;&gt;history/hash.js</title>
<path fill="none" stroke="#757575" d="M347.26,-599.68C360.92,-592.9 380.81,-584.53 399.86,-577.32"/>
<polygon fill="#757575" stroke="#757575" points="401.25,-580.54 409.41,-573.78 398.82,-573.98 401.25,-580.54"/>
</g>
<!-- history/html5.js -->
<g id="node21" class="node">
<title>history/html5.js</title>
<path fill="none" stroke="#ff6c60" d="M666.83,-629.71C666.83,-629.71 575.17,-629.71 575.17,-629.71 571.33,-629.71 567.5,-625.87 567.5,-622.04 567.5,-622.04 567.5,-614.37 567.5,-614.37 567.5,-610.54 571.33,-606.71 575.17,-606.71 575.17,-606.71 666.83,-606.71 666.83,-606.71 670.67,-606.71 674.5,-610.54 674.5,-614.37 674.5,-614.37 674.5,-622.04 674.5,-622.04 674.5,-625.87 670.67,-629.71 666.83,-629.71"/>
<text text-anchor="middle" x="621" y="-614.51" font-family="Arial" font-size="14.00" fill="#ff6c60">history/html5.js</text>
</g>
<!-- index.js&#45;&gt;history/html5.js -->
<g id="edge44" class="edge">
<title>index.js&#45;&gt;history/html5.js</title>
<path fill="none" stroke="#757575" d="M360.21,-607.61C406.57,-606.04 496.24,-607.75 557.11,-611.01"/>
<polygon fill="#757575" stroke="#757575" points="557.19,-614.52 567.37,-611.59 557.59,-607.53 557.19,-614.52"/>
</g>
<!-- util/push&#45;state.js -->
<g id="node22" class="node">
<title>util/push&#45;state.js</title>
<path fill="none" stroke="#ff6c60" d="M830.33,-631.71C830.33,-631.71 731.67,-631.71 731.67,-631.71 727.83,-631.71 724,-627.87 724,-624.04 724,-624.04 724,-616.37 724,-616.37 724,-612.54 727.83,-608.71 731.67,-608.71 731.67,-608.71 830.33,-608.71 830.33,-608.71 834.17,-608.71 838,-612.54 838,-616.37 838,-616.37 838,-624.04 838,-624.04 838,-627.87 834.17,-631.71 830.33,-631.71"/>
<text text-anchor="middle" x="781" y="-616.51" font-family="Arial" font-size="14.00" fill="#ff6c60">util/push&#45;state.js</text>
</g>
<!-- index.js&#45;&gt;util/push&#45;state.js -->
<g id="edge50" class="edge">
<title>index.js&#45;&gt;util/push&#45;state.js</title>
<path fill="none" stroke="#757575" d="M352.23,-622.84C364.72,-628.71 380.82,-635.22 396,-638.21 523.34,-663.25 558.83,-650.72 688,-638.21 698.43,-637.2 709.44,-635.55 720.08,-633.66"/>
<polygon fill="#757575" stroke="#757575" points="720.94,-637.06 730.12,-631.78 719.65,-630.18 720.94,-637.06"/>
</g>
<!-- util/scroll.js -->
<g id="node23" class="node">
<title>util/scroll.js</title>
<path fill="none" stroke="#ff6c60" d="M994.33,-591.71C994.33,-591.71 926.67,-591.71 926.67,-591.71 922.83,-591.71 919,-587.87 919,-584.04 919,-584.04 919,-576.37 919,-576.37 919,-572.54 922.83,-568.71 926.67,-568.71 926.67,-568.71 994.33,-568.71 994.33,-568.71 998.17,-568.71 1002,-572.54 1002,-576.37 1002,-576.37 1002,-584.04 1002,-584.04 1002,-587.87 998.17,-591.71 994.33,-591.71"/>
<text text-anchor="middle" x="960.5" y="-576.51" font-family="Arial" font-size="14.00" fill="#ff6c60">util/scroll.js</text>
</g>
<!-- index.js&#45;&gt;util/scroll.js -->
<g id="edge52" class="edge">
<title>index.js&#45;&gt;util/scroll.js</title>
<path fill="none" stroke="#757575" d="M333.82,-599.53C342.53,-580.37 365.48,-545.38 396,-532.21 584.56,-450.83 841.73,-528.7 929.06,-564.65"/>
<polygon fill="#757575" stroke="#757575" points="927.81,-567.93 938.39,-568.61 930.55,-561.48 927.81,-567.93"/>
</g>
<!-- util/params.js&#45;&gt;util/warn.js -->
<g id="edge62" class="edge">
<title>util/params.js&#45;&gt;util/warn.js</title>
<path fill="none" stroke="#757575" d="M669.51,-1138.21C734.84,-1138.21 856.08,-1138.21 959.5,-1138.21 959.5,-1138.21 959.5,-1138.21 1436,-1138.21 1507.91,-1138.21 1545.74,-1165.63 1596,-1114.21 1636.79,-1072.48 1663.87,-645.66 1669.78,-543.9"/>
<polygon fill="#757575" stroke="#757575" points="1673.28,-544.05 1670.36,-533.86 1666.29,-543.65 1673.28,-544.05"/>
</g>
<!-- util/query.js&#45;&gt;util/warn.js -->
<g id="edge67" class="edge">
<title>util/query.js&#45;&gt;util/warn.js</title>
<path fill="none" stroke="#757575" d="M1580.86,-1048.54C1586.68,-1044.76 1592.24,-1040 1596,-1034.21 1649.93,-951.08 1666.61,-631.04 1670.19,-544.11"/>
<polygon fill="#757575" stroke="#757575" points="1673.7,-543.98 1670.59,-533.85 1666.7,-543.7 1673.7,-543.98"/>
</g>
<!-- history/abstract.js&#45;&gt;index.js -->
<g id="edge19" class="edge">
<title>history/abstract.js&#45;&gt;index.js</title>
<path fill="none" stroke="#757575" d="M435.71,-341.8C422.58,-346.77 406.11,-353.39 396,-365.21 338.88,-431.98 330.33,-542.18 329.61,-589.19"/>
<polygon fill="#757575" stroke="#757575" points="326.11,-589.46 329.57,-599.47 333.11,-589.48 326.11,-589.46"/>
</g>
<!-- history/base.js -->
<g id="node14" class="node">
<title>history/base.js</title>
<path fill="none" stroke="#ff6c60" d="M824.83,-397.71C824.83,-397.71 737.17,-397.71 737.17,-397.71 733.33,-397.71 729.5,-393.87 729.5,-390.04 729.5,-390.04 729.5,-382.37 729.5,-382.37 729.5,-378.54 733.33,-374.71 737.17,-374.71 737.17,-374.71 824.83,-374.71 824.83,-374.71 828.67,-374.71 832.5,-378.54 832.5,-382.37 832.5,-382.37 832.5,-390.04 832.5,-390.04 832.5,-393.87 828.67,-397.71 824.83,-397.71"/>
<text text-anchor="middle" x="781" y="-382.51" font-family="Arial" font-size="14.00" fill="#ff6c60">history/base.js</text>
</g>
<!-- history/abstract.js&#45;&gt;history/base.js -->
<g id="edge18" class="edge">
<title>history/abstract.js&#45;&gt;history/base.js</title>
<path fill="none" stroke="#757575" d="M518.11,-333.66C564.83,-337.14 631.06,-343.84 688,-356.21 705.4,-359.99 724.17,-365.78 740.18,-371.27"/>
<polygon fill="#757575" stroke="#757575" points="739.17,-374.62 749.76,-374.63 741.48,-368.02 739.17,-374.62"/>
</g>
<!-- history/abstract.js&#45;&gt;util/errors.js -->
<g id="edge20" class="edge">
<title>history/abstract.js&#45;&gt;util/errors.js</title>
<path fill="none" stroke="#757575" d="M486.63,-318.69C553.25,-292.54 724.36,-229.02 874,-204.21 945.36,-192.37 1029.17,-191.81 1082.06,-193.05"/>
<polygon fill="#757575" stroke="#757575" points="1082.12,-196.56 1092.21,-193.32 1082.3,-189.56 1082.12,-196.56"/>
</g>
<!-- history/base.js&#45;&gt;util/route.js -->
<g id="edge27" class="edge">
<title>history/base.js&#45;&gt;util/route.js</title>
<path fill="none" stroke="#757575" d="M807.49,-397.85C825.8,-406.01 851.18,-416.9 874,-425.21 1097.8,-506.67 1196.76,-479.92 1358,-655.21 1397.11,-697.72 1419.27,-763.89 1428.63,-797.71"/>
<polygon fill="#757575" stroke="#757575" points="1425.28,-798.72 1431.23,-807.49 1432.05,-796.92 1425.28,-798.72"/>
</g>
<!-- history/base.js&#45;&gt;util/warn.js -->
<g id="edge28" class="edge">
<title>history/base.js&#45;&gt;util/warn.js</title>
<path fill="none" stroke="#757575" d="M788.17,-374.58C800.78,-352.22 831.91,-303.8 874,-285.21 931.04,-260.01 1220.52,-262.87 1476,-301.21 1530.59,-309.4 1554.75,-296.53 1596,-333.21 1646.29,-377.92 1663.27,-460.85 1668.66,-500.28"/>
<polygon fill="#757575" stroke="#757575" points="1665.21,-500.9 1669.92,-510.39 1672.16,-500.04 1665.21,-500.9"/>
</g>
<!-- history/base.js&#45;&gt;index.js -->
<g id="edge21" class="edge">
<title>history/base.js&#45;&gt;index.js</title>
<path fill="none" stroke="#757575" d="M729.21,-380.17C637.02,-370.34 446.96,-355.61 396,-394.21 334.22,-441 328.42,-544.11 329.05,-589.28"/>
<polygon fill="#757575" stroke="#757575" points="325.55,-589.54 329.31,-599.45 332.55,-589.36 325.55,-589.54"/>
</g>
<!-- history/base.js&#45;&gt;util/errors.js -->
<g id="edge25" class="edge">
<title>history/base.js&#45;&gt;util/errors.js</title>
<path fill="none" stroke="#757575" d="M786.4,-374.69C797.06,-348.42 826.94,-283.87 874,-252.21 907.5,-229.67 1016.27,-211.38 1082.2,-202.02"/>
<polygon fill="#757575" stroke="#757575" points="1082.98,-205.44 1092.4,-200.59 1082.01,-198.51 1082.98,-205.44"/>
</g>
<!-- history/base.js&#45;&gt;install.js -->
<g id="edge22" class="edge">
<title>history/base.js&#45;&gt;install.js</title>
<path fill="none" stroke="#757575" d="M827.62,-397.77C880.91,-409.42 971.42,-423.41 1047,-406.21 1052.96,-404.85 1080.24,-391.55 1102.78,-380.28"/>
<polygon fill="#757575" stroke="#757575" points="1104.39,-383.39 1111.76,-375.77 1101.25,-377.13 1104.39,-383.39"/>
</g>
<!-- util/async.js -->
<g id="node17" class="node">
<title>util/async.js</title>
<path fill="none" stroke="#cfffac" d="M995.83,-397.71C995.83,-397.71 925.17,-397.71 925.17,-397.71 921.33,-397.71 917.5,-393.87 917.5,-390.04 917.5,-390.04 917.5,-382.37 917.5,-382.37 917.5,-378.54 921.33,-374.71 925.17,-374.71 925.17,-374.71 995.83,-374.71 995.83,-374.71 999.67,-374.71 1003.5,-378.54 1003.5,-382.37 1003.5,-382.37 1003.5,-390.04 1003.5,-390.04 1003.5,-393.87 999.67,-397.71 995.83,-397.71"/>
<text text-anchor="middle" x="960.5" y="-382.51" font-family="Arial" font-size="14.00" fill="#cfffac">util/async.js</text>
</g>
<!-- history/base.js&#45;&gt;util/async.js -->
<g id="edge23" class="edge">
<title>history/base.js&#45;&gt;util/async.js</title>
<path fill="none" stroke="#757575" d="M832.86,-386.21C856.16,-386.21 883.73,-386.21 907.2,-386.21"/>
<polygon fill="#757575" stroke="#757575" points="907.31,-389.71 917.31,-386.21 907.31,-382.71 907.31,-389.71"/>
</g>
<!-- history/base.js&#45;&gt;util/dom.js -->
<g id="edge24" class="edge">
<title>history/base.js&#45;&gt;util/dom.js</title>
<path fill="none" stroke="#757575" d="M791.41,-397.97C806.98,-416.85 839.79,-454.21 874,-478.21 943.51,-526.96 970.31,-522.79 1047,-559.21 1122.38,-595 1210.58,-637.66 1257.21,-660.28"/>
<polygon fill="#757575" stroke="#757575" points="1255.72,-663.45 1266.24,-664.66 1258.77,-657.15 1255.72,-663.45"/>
</g>
<!-- util/resolve&#45;components.js -->
<g id="node19" class="node">
<title>util/resolve&#45;components.js</title>
<path fill="none" stroke="#c6c5fe" d="M1039.33,-317.71C1039.33,-317.71 881.67,-317.71 881.67,-317.71 877.83,-317.71 874,-313.87 874,-310.04 874,-310.04 874,-302.37 874,-302.37 874,-298.54 877.83,-294.71 881.67,-294.71 881.67,-294.71 1039.33,-294.71 1039.33,-294.71 1043.17,-294.71 1047,-298.54 1047,-302.37 1047,-302.37 1047,-310.04 1047,-310.04 1047,-313.87 1043.17,-317.71 1039.33,-317.71"/>
<text text-anchor="middle" x="960.5" y="-302.51" font-family="Arial" font-size="14.00" fill="#c6c5fe">util/resolve&#45;components.js</text>
</g>
<!-- history/base.js&#45;&gt;util/resolve&#45;components.js -->
<g id="edge26" class="edge">
<title>history/base.js&#45;&gt;util/resolve&#45;components.js</title>
<path fill="none" stroke="#757575" d="M807.81,-374.57C838.66,-360.67 890.41,-337.35 924.75,-321.87"/>
<polygon fill="#757575" stroke="#757575" points="926.27,-325.02 933.95,-317.72 923.39,-318.64 926.27,-325.02"/>
</g>
<!-- install.js&#45;&gt;components/link.js -->
<g id="edge54" class="edge">
<title>install.js&#45;&gt;components/link.js</title>
<path fill="none" stroke="#757575" d="M1102.88,-362.91C1053.11,-360.14 953.92,-351.64 874,-326.21 676.26,-263.28 665.51,-114.21 458,-114.21 328,-114.21 328,-114.21 328,-114.21 264.01,-114.21 191.25,-114.21 138.51,-114.21"/>
<polygon fill="#757575" stroke="#757575" points="138.24,-110.71 128.24,-114.21 138.24,-117.71 138.24,-110.71"/>
</g>
<!-- install.js&#45;&gt;components/view.js -->
<g id="edge55" class="edge">
<title>install.js&#45;&gt;components/view.js</title>
<path fill="none" stroke="#757575" d="M1151.5,-375.74C1178.25,-396.3 1234.4,-439.46 1266.38,-464.05"/>
<polygon fill="#757575" stroke="#757575" points="1264.65,-467.14 1274.71,-470.46 1268.92,-461.59 1264.65,-467.14"/>
</g>
<!-- util/resolve&#45;components.js&#45;&gt;util/warn.js -->
<g id="edge70" class="edge">
<title>util/resolve&#45;components.js&#45;&gt;util/warn.js</title>
<path fill="none" stroke="#757575" d="M1047.25,-309.84C1113.52,-312.34 1207.56,-315.21 1290,-315.21 1290,-315.21 1290,-315.21 1436,-315.21 1547.86,-315.21 1631.71,-448.91 1660.32,-501.4"/>
<polygon fill="#757575" stroke="#757575" points="1657.36,-503.3 1665.15,-510.48 1663.54,-500.01 1657.36,-503.3"/>
</g>
<!-- util/resolve&#45;components.js&#45;&gt;util/errors.js -->
<g id="edge69" class="edge">
<title>util/resolve&#45;components.js&#45;&gt;util/errors.js</title>
<path fill="none" stroke="#757575" d="M979.69,-294.54C1010.27,-274.92 1072.12,-235.23 1107.69,-212.41"/>
<polygon fill="#757575" stroke="#757575" points="1110.03,-215.07 1116.56,-206.72 1106.25,-209.17 1110.03,-215.07"/>
</g>
<!-- util/resolve&#45;components.js&#45;&gt;install.js -->
<g id="edge68" class="edge">
<title>util/resolve&#45;components.js&#45;&gt;install.js</title>
<path fill="none" stroke="#757575" d="M1001.23,-317.79C1015.7,-322.14 1032.14,-327.23 1047,-332.21 1062.73,-337.47 1079.9,-343.65 1094.82,-349.17"/>
<polygon fill="#757575" stroke="#757575" points="1093.68,-352.48 1104.27,-352.68 1096.12,-345.92 1093.68,-352.48"/>
</g>
<!-- history/hash.js&#45;&gt;index.js -->
<g id="edge31" class="edge">
<title>history/hash.js&#45;&gt;index.js</title>
<path fill="none" stroke="#757575" d="M438.49,-573.86C420.79,-582.61 392.84,-593.98 369.74,-602.08"/>
<polygon fill="#757575" stroke="#757575" points="368.52,-598.79 360.18,-605.33 370.77,-605.42 368.52,-598.79"/>
</g>
<!-- history/hash.js&#45;&gt;util/path.js -->
<g id="edge32" class="edge">
<title>history/hash.js&#45;&gt;util/path.js</title>
<path fill="none" stroke="#757575" d="M470.23,-573.83C519.04,-620.22 700.2,-792.37 760.4,-849.58"/>
<polygon fill="#757575" stroke="#757575" points="758.1,-852.22 767.76,-856.57 762.92,-847.15 758.1,-852.22"/>
</g>
<!-- history/hash.js&#45;&gt;history/base.js -->
<g id="edge29" class="edge">
<title>history/hash.js&#45;&gt;history/base.js</title>
<path fill="none" stroke="#757575" d="M479.13,-550.66C534.74,-520.26 685.32,-437.96 749.91,-402.65"/>
<polygon fill="#757575" stroke="#757575" points="751.7,-405.66 758.79,-397.8 748.34,-399.52 751.7,-405.66"/>
</g>
<!-- history/hash.js&#45;&gt;history/html5.js -->
<g id="edge30" class="edge">
<title>history/hash.js&#45;&gt;history/html5.js</title>
<path fill="none" stroke="#757575" d="M491.57,-573.81C516.33,-582.37 550.22,-594.09 576.97,-603.33"/>
<polygon fill="#757575" stroke="#757575" points="575.88,-606.66 586.48,-606.62 578.17,-600.04 575.88,-606.66"/>
</g>
<!-- history/hash.js&#45;&gt;util/push&#45;state.js -->
<g id="edge33" class="edge">
<title>history/hash.js&#45;&gt;util/push&#45;state.js</title>
<path fill="none" stroke="#757575" d="M508.94,-568.56C555.71,-574.72 626.82,-584.93 688,-597.21 700.74,-599.76 714.36,-602.93 727.12,-606.08"/>
<polygon fill="#757575" stroke="#757575" points="726.58,-609.56 737.13,-608.6 728.29,-602.77 726.58,-609.56"/>
</g>
<!-- history/hash.js&#45;&gt;util/scroll.js -->
<g id="edge34" class="edge">
<title>history/hash.js&#45;&gt;util/scroll.js</title>
<path fill="none" stroke="#757575" d="M508.85,-564.03C605.07,-567.49 812.75,-574.94 908.83,-578.39"/>
<polygon fill="#757575" stroke="#757575" points="908.76,-581.89 918.88,-578.75 909.01,-574.89 908.76,-581.89"/>
</g>
<!-- history/html5.js&#45;&gt;util/route.js -->
<g id="edge39" class="edge">
<title>history/html5.js&#45;&gt;util/route.js</title>
<path fill="none" stroke="#757575" d="M641.56,-629.78C702.81,-665.6 890.91,-772.21 959.5,-772.21 959.5,-772.21 959.5,-772.21 1136.5,-772.21 1235.52,-772.21 1260.97,-776.45 1358,-796.21 1368.86,-798.42 1380.39,-801.51 1391.11,-804.71"/>
<polygon fill="#757575" stroke="#757575" points="1390.08,-808.06 1400.67,-807.65 1392.15,-801.37 1390.08,-808.06"/>
</g>
<!-- history/html5.js&#45;&gt;index.js -->
<g id="edge36" class="edge">
<title>history/html5.js&#45;&gt;index.js</title>
<path fill="none" stroke="#757575" d="M567.37,-622.28C510.67,-622.94 421.66,-620.62 370.28,-617.02"/>
<polygon fill="#757575" stroke="#757575" points="370.45,-613.52 360.21,-616.26 369.92,-620.5 370.45,-613.52"/>
</g>
<!-- history/html5.js&#45;&gt;util/path.js -->
<g id="edge37" class="edge">
<title>history/html5.js&#45;&gt;util/path.js</title>
<path fill="none" stroke="#757575" d="M637.66,-629.81C652.49,-641.54 674.45,-660.93 688,-682.21 714.27,-723.46 702.01,-742.51 724,-786.21 735.38,-808.81 752.12,-832.46 764.34,-848.52"/>
<polygon fill="#757575" stroke="#757575" points="761.71,-850.84 770.59,-856.6 767.24,-846.55 761.71,-850.84"/>
</g>
<!-- history/html5.js&#45;&gt;history/base.js -->
<g id="edge35" class="edge">
<title>history/html5.js&#45;&gt;history/base.js</title>
<path fill="none" stroke="#757575" d="M629.84,-606.7C655.05,-569.67 734.33,-453.26 766.37,-406.22"/>
<polygon fill="#757575" stroke="#757575" points="769.38,-408.02 772.12,-397.78 763.6,-404.08 769.38,-408.02"/>
</g>
<!-- history/html5.js&#45;&gt;util/push&#45;state.js -->
<g id="edge38" class="edge">
<title>history/html5.js&#45;&gt;util/push&#45;state.js</title>
<path fill="none" stroke="#757575" d="M674.61,-618.87C687.08,-619.03 700.54,-619.2 713.53,-619.36"/>
<polygon fill="#757575" stroke="#757575" points="713.78,-622.87 723.82,-619.5 713.87,-615.87 713.78,-622.87"/>
</g>
<!-- history/html5.js&#45;&gt;util/scroll.js -->
<g id="edge40" class="edge">
<title>history/html5.js&#45;&gt;util/scroll.js</title>
<path fill="none" stroke="#757575" d="M674.51,-607.35C690.36,-604.36 707.84,-601.36 724,-599.21 787.45,-590.76 861.05,-585.55 908.85,-582.77"/>
<polygon fill="#757575" stroke="#757575" points="909.16,-586.26 918.94,-582.2 908.76,-579.27 909.16,-586.26"/>
</g>
<!-- util/push&#45;state.js&#45;&gt;util/misc.js -->
<g id="edge64" class="edge">
<title>util/push&#45;state.js&#45;&gt;util/misc.js</title>
<path fill="none" stroke="#757575" d="M838.11,-625.22C893.22,-628.05 978.73,-626.73 1047,-600.21 1140.24,-563.99 1134.61,-506.09 1224,-461.21 1275.83,-435.18 1341.03,-419.87 1384.92,-411.78"/>
<polygon fill="#757575" stroke="#757575" points="1385.54,-415.22 1394.77,-410.02 1384.31,-408.33 1385.54,-415.22"/>
</g>
<!-- util/push&#45;state.js&#45;&gt;util/dom.js -->
<g id="edge63" class="edge">
<title>util/push&#45;state.js&#45;&gt;util/dom.js</title>
<path fill="none" stroke="#757575" d="M806.01,-631.73C824.23,-639.95 850.14,-650.51 874,-656.21 1004.08,-687.24 1163.33,-683.87 1241.71,-679.61"/>
<polygon fill="#757575" stroke="#757575" points="1241.99,-683.1 1251.77,-679.04 1241.58,-676.11 1241.99,-683.1"/>
</g>
<!-- util/push&#45;state.js&#45;&gt;util/scroll.js -->
<g id="edge65" class="edge">
<title>util/push&#45;state.js&#45;&gt;util/scroll.js</title>
<path fill="none" stroke="#757575" d="M833.34,-608.64C857.17,-603.27 885.41,-596.9 909.12,-591.56"/>
<polygon fill="#757575" stroke="#757575" points="909.99,-594.95 918.98,-589.34 908.45,-588.12 909.99,-594.95"/>
</g>
<!-- util/state&#45;key.js -->
<g id="node24" class="node">
<title>util/state&#45;key.js</title>
<path fill="none" stroke="#c6c5fe" d="M1180.33,-667.71C1180.33,-667.71 1090.67,-667.71 1090.67,-667.71 1086.83,-667.71 1083,-663.87 1083,-660.04 1083,-660.04 1083,-652.37 1083,-652.37 1083,-648.54 1086.83,-644.71 1090.67,-644.71 1090.67,-644.71 1180.33,-644.71 1180.33,-644.71 1184.17,-644.71 1188,-648.54 1188,-652.37 1188,-652.37 1188,-660.04 1188,-660.04 1188,-663.87 1184.17,-667.71 1180.33,-667.71"/>
<text text-anchor="middle" x="1135.5" y="-652.51" font-family="Arial" font-size="14.00" fill="#c6c5fe">util/state&#45;key.js</text>
</g>
<!-- util/push&#45;state.js&#45;&gt;util/state&#45;key.js -->
<g id="edge66" class="edge">
<title>util/push&#45;state.js&#45;&gt;util/state&#45;key.js</title>
<path fill="none" stroke="#757575" d="M838.36,-629.39C850.12,-631.14 862.45,-632.84 874,-634.21 941.82,-642.22 1019.91,-648.41 1072.77,-652.16"/>
<polygon fill="#757575" stroke="#757575" points="1072.77,-655.67 1082.99,-652.88 1073.26,-648.68 1072.77,-655.67"/>
</g>
<!-- util/scroll.js&#45;&gt;util/misc.js -->
<g id="edge74" class="edge">
<title>util/scroll.js&#45;&gt;util/misc.js</title>
<path fill="none" stroke="#757575" d="M981.81,-568.57C1000.51,-557.1 1028.13,-538.13 1047,-516.21 1069.05,-490.58 1055.35,-468.65 1083,-449.21 1173.89,-385.3 1311.54,-389.23 1384.52,-397.04"/>
<polygon fill="#757575" stroke="#757575" points="1384.47,-400.56 1394.81,-398.22 1385.27,-393.61 1384.47,-400.56"/>
</g>
<!-- util/scroll.js&#45;&gt;util/warn.js -->
<g id="edge76" class="edge">
<title>util/scroll.js&#45;&gt;util/warn.js</title>
<path fill="none" stroke="#757575" d="M1000.8,-568.68C1062.03,-551.76 1184.16,-522.21 1290,-522.21 1290,-522.21 1290,-522.21 1436,-522.21 1500.24,-522.21 1574.35,-522.21 1621.89,-522.21"/>
<polygon fill="#757575" stroke="#757575" points="1621.91,-525.71 1631.91,-522.21 1621.91,-518.71 1621.91,-525.71"/>
</g>
<!-- util/scroll.js&#45;&gt;index.js -->
<g id="edge73" class="edge">
<title>util/scroll.js&#45;&gt;index.js</title>
<path fill="none" stroke="#757575" d="M918.78,-569.73C822.97,-541.2 577.65,-471.82 396,-550.21 375.87,-558.89 359.04,-577.07 347.41,-591.51"/>
<polygon fill="#757575" stroke="#757575" points="344.58,-589.45 341.17,-599.48 350.09,-593.76 344.58,-589.45"/>
</g>
<!-- util/scroll.js&#45;&gt;util/state&#45;key.js -->
<g id="edge75" class="edge">
<title>util/scroll.js&#45;&gt;util/state&#45;key.js</title>
<path fill="none" stroke="#757575" d="M987.77,-591.75C1017.46,-604.79 1065.92,-626.08 1098.96,-640.59"/>
<polygon fill="#757575" stroke="#757575" points="1097.7,-643.86 1108.26,-644.68 1100.51,-637.45 1097.7,-643.86"/>
</g>
<!-- util/state&#45;key.js&#45;&gt;util/dom.js -->
<g id="edge77" class="edge">
<title>util/state&#45;key.js&#45;&gt;util/dom.js</title>
<path fill="none" stroke="#757575" d="M1188.04,-662.92C1205.35,-665.18 1224.59,-667.68 1241.64,-669.91"/>
<polygon fill="#757575" stroke="#757575" points="1241.58,-673.43 1251.95,-671.25 1242.48,-666.49 1241.58,-673.43"/>
</g>
</g>
</svg>
